<svg width="77" height="14" viewBox="0 0 77 14" fill="none" xmlns="http://www.w3.org/2000/svg">
<path d="M39.3961 6.8103C40.7054 6.86157 41.6066 8.64774 41.7086 9.03882C41.8105 9.42984 41.8103 10.0076 41.1647 10.0417C40.5187 10.0757 40.3482 9.77507 39.8044 9.68433C39.7309 9.67209 39.6004 9.66774 39.5661 9.66772C39.464 9.66772 39.3329 9.67672 39.2936 9.68433C39.1178 9.71836 38.6645 9.8238 38.2565 9.97339C37.7464 10.1604 36.9642 10.0246 37.1169 9.12378C37.2699 8.22254 38.0868 6.75929 39.3961 6.8103ZM36.1735 5.4021C36.6098 5.18477 37.2056 5.49365 37.5045 6.09253C37.8035 6.6918 37.6919 7.35431 37.2555 7.57202C36.8192 7.78968 36.2235 7.48064 35.9245 6.88159C35.6255 6.28232 35.7371 5.6198 36.1735 5.4021ZM41.0944 6.02515C41.3677 5.40719 41.9539 5.06738 42.404 5.26636C42.854 5.46538 42.9975 6.12786 42.7243 6.74585C42.4511 7.36372 41.8647 7.7033 41.4147 7.50464C40.9646 7.30565 40.8211 6.64318 41.0944 6.02515ZM39.484 4.27417C39.6734 3.57114 40.2425 3.1129 40.7545 3.25073C41.2667 3.3886 41.5278 4.07096 41.3385 4.77417C41.1491 5.47714 40.581 5.93538 40.069 5.79761C39.5569 5.65975 39.2947 4.97739 39.484 4.27417ZM37.8424 3.23413C38.3553 3.10014 38.9205 3.56231 39.1051 4.26636C39.2897 4.97084 39.0235 5.65149 38.5104 5.78589C37.9974 5.92024 37.4323 5.45798 37.2477 4.75366C37.0632 4.04918 37.3294 3.36853 37.8424 3.23413Z" fill="url(#paint0_linear_2501_1218)"/>
<path d="M73.2723 10.1349L75.6623 3.22705H76.5772L73.329 12.1349C73.2628 12.3098 73.1777 12.5036 73.0737 12.7164C72.9744 12.9292 72.842 13.1325 72.6765 13.3263C72.5158 13.5249 72.3125 13.6857 72.0666 13.8086C71.8255 13.9363 71.53 14.0001 71.1801 14.0001C71.0902 14.0001 70.9744 13.9883 70.8326 13.9646C70.6954 13.9457 70.5961 13.9268 70.5347 13.9079L70.5276 13.1916C70.5796 13.2058 70.6552 13.2176 70.7545 13.227C70.8538 13.2365 70.9224 13.2412 70.9602 13.2412C71.2675 13.2412 71.5252 13.1892 71.7333 13.0852C71.946 12.9812 72.1233 12.8252 72.2652 12.6171C72.407 12.4138 72.5323 12.1585 72.6411 11.8512L73.2723 10.1349ZM71.0382 3.22705L73.485 9.8157L73.712 10.7022L73.095 11.0497L70.1162 3.22705H71.0382Z" fill="#999999"/>
<path d="M59.4986 4.81546V10.9006H58.6475V3.2268H59.4631L59.4986 4.81546ZM59.3425 6.58851L58.9312 6.37574C58.9595 5.92184 59.0447 5.49631 59.1865 5.09915C59.3331 4.70198 59.5364 4.3521 59.7964 4.0495C60.0565 3.7469 60.3685 3.51049 60.7326 3.34028C61.0967 3.17007 61.5104 3.08496 61.9737 3.08496C62.3473 3.08496 62.6853 3.13697 62.9879 3.24099C63.2952 3.34028 63.5553 3.49867 63.7681 3.71617C63.9856 3.92893 64.1534 4.20789 64.2716 4.55305C64.3898 4.8982 64.4489 5.31191 64.4489 5.79418V10.9006H63.6049V5.82255C63.6049 5.31191 63.5246 4.91238 63.3638 4.62397C63.2078 4.33555 62.9879 4.12988 62.7042 4.00695C62.4253 3.88402 62.1014 3.82255 61.7326 3.82255C61.2976 3.82255 60.9288 3.91238 60.6262 4.09205C60.3283 4.26699 60.0848 4.49631 59.8957 4.78C59.7113 5.05896 59.5742 5.35919 59.4844 5.68071C59.3945 5.99749 59.3473 6.30009 59.3425 6.58851ZM64.4418 5.92184L63.8744 5.93602C63.8981 5.5625 63.9832 5.20553 64.1298 4.8651C64.2811 4.52468 64.4867 4.22208 64.7468 3.9573C65.0068 3.6878 65.3165 3.47503 65.6759 3.319C66.0399 3.16298 66.4489 3.08496 66.9028 3.08496C67.3 3.08496 67.6546 3.13933 67.9666 3.24808C68.2787 3.3521 68.5411 3.51995 68.7539 3.75163C68.9714 3.97858 69.1369 4.26936 69.2503 4.62397C69.3638 4.97858 69.4205 5.40411 69.4205 5.90056V10.9006H68.5695V5.89347C68.5695 5.34974 68.4891 4.92893 68.3283 4.63106C68.1723 4.32846 67.9548 4.11806 67.6759 3.99985C67.3969 3.88165 67.0707 3.82255 66.6971 3.82255C66.3283 3.82728 66.0045 3.89584 65.7255 4.02822C65.4465 4.15588 65.2125 4.3261 65.0234 4.53886C64.839 4.7469 64.6971 4.97149 64.5978 5.21262C64.5033 5.45376 64.4513 5.69016 64.4418 5.92184Z" fill="#999999"/>
<path d="M50.668 7.18425V6.95021C50.668 6.39229 50.7484 5.87692 50.9091 5.40411C51.0699 4.9313 51.2992 4.52231 51.5971 4.17716C51.8997 3.83201 52.2614 3.56487 52.6822 3.37574C53.103 3.18189 53.5711 3.08496 54.0864 3.08496C54.6065 3.08496 55.077 3.18189 55.4978 3.37574C55.9186 3.56487 56.2803 3.83201 56.5829 4.17716C56.8855 4.52231 57.1172 4.9313 57.2779 5.40411C57.4387 5.87692 57.5191 6.39229 57.5191 6.95021V7.18425C57.5191 7.74217 57.4387 8.25754 57.2779 8.73035C57.1172 9.19844 56.8855 9.60506 56.5829 9.95021C56.285 10.2954 55.9257 10.5649 55.5049 10.7587C55.0841 10.9478 54.616 11.0424 54.1006 11.0424C53.5805 11.0424 53.1101 10.9478 52.6893 10.7587C52.2685 10.5649 51.9068 10.2954 51.6042 9.95021C51.3016 9.60506 51.0699 9.19844 50.9091 8.73035C50.7484 8.25754 50.668 7.74217 50.668 7.18425ZM51.512 6.95021V7.18425C51.512 7.60506 51.5687 8.00458 51.6822 8.38283C51.7957 8.75636 51.9611 9.08969 52.1786 9.38283C52.3961 9.67125 52.6656 9.8982 52.9871 10.0637C53.3087 10.2292 53.6798 10.3119 54.1006 10.3119C54.5167 10.3119 54.8831 10.2292 55.1999 10.0637C55.5214 9.8982 55.7909 9.67125 56.0084 9.38283C56.2259 9.08969 56.389 8.75636 56.4978 8.38283C56.6113 8.00458 56.668 7.60506 56.668 7.18425V6.95021C56.668 6.53413 56.6113 6.13933 56.4978 5.76581C56.389 5.39229 56.2236 5.05896 56.0013 4.76581C55.7838 4.47267 55.5143 4.24099 55.1928 4.07078C54.8713 3.90056 54.5025 3.81546 54.0864 3.81546C53.6704 3.81546 53.3016 3.90056 52.9801 4.07078C52.6633 4.24099 52.3938 4.47267 52.1715 4.76581C51.9541 5.05896 51.7886 5.39229 51.6751 5.76581C51.5663 6.13933 51.512 6.53413 51.512 6.95021Z" fill="#999999"/>
<path d="M44.5754 4.8651V10.9006H43.7315V3.2268H44.54L44.5754 4.8651ZM44.384 6.58851L44.0081 6.37574C44.0364 5.92184 44.1286 5.49631 44.2847 5.09915C44.4407 4.70198 44.6511 4.3521 44.9159 4.0495C45.1854 3.7469 45.4998 3.51049 45.8591 3.34028C46.2232 3.17007 46.6251 3.08496 47.0648 3.08496C47.4478 3.08496 47.7906 3.13697 48.0932 3.24099C48.3958 3.34501 48.6535 3.51049 48.8662 3.73744C49.079 3.96439 49.2397 4.25517 49.3485 4.60978C49.462 4.96439 49.5187 5.39702 49.5187 5.90766V10.9006H48.6676V5.90056C48.6676 5.37101 48.5944 4.9573 48.4478 4.65943C48.3012 4.35683 48.0932 4.1417 47.8237 4.01404C47.5542 3.88638 47.235 3.82255 46.8662 3.82255C46.4596 3.82255 46.1026 3.91238 45.7953 4.09205C45.4927 4.26699 45.2374 4.49631 45.0293 4.78C44.826 5.05896 44.67 5.35919 44.5613 5.68071C44.4525 5.99749 44.3934 6.30009 44.384 6.58851Z" fill="#999999"/>
<path d="M30.6588 0V10.9007H28.6162V0H30.6588ZM35.4957 3.22695L32.1623 7.02837L30.3751 8.83688L29.6304 7.3617L31.0489 5.56028L33.0418 3.22695H35.4957ZM33.3751 10.9007L31.1056 7.35461L32.517 6.12057L35.7297 10.9007H33.3751Z" fill="#999999"/>
<path d="M25.9215 4.90056V10.9006H23.8789V3.2268H25.8009L25.9215 4.90056ZM28.2335 3.17716L28.1981 5.07078C28.0988 5.05659 27.9782 5.04477 27.8364 5.03532C27.6993 5.02113 27.574 5.01404 27.4605 5.01404C27.1721 5.01404 26.9215 5.05186 26.7087 5.12751C26.5007 5.19844 26.3257 5.30482 26.1839 5.44666C26.0468 5.58851 25.9428 5.76108 25.8718 5.96439C25.8057 6.1677 25.7678 6.39938 25.7584 6.65943L25.347 6.53177C25.347 6.03532 25.3967 5.57905 25.496 5.16298C25.5952 4.74217 25.7395 4.37574 25.9286 4.06368C26.1224 3.75163 26.3588 3.51049 26.6378 3.34028C26.9168 3.17007 27.2359 3.08496 27.5952 3.08496C27.7087 3.08496 27.8246 3.09442 27.9428 3.11333C28.061 3.12751 28.1579 3.14879 28.2335 3.17716Z" fill="#999999"/>
<path d="M20.8285 9.17007V5.75163C20.8285 5.50576 20.7883 5.29536 20.7079 5.12042C20.6275 4.94075 20.5022 4.80127 20.332 4.70198C20.1665 4.60269 19.9514 4.55305 19.6866 4.55305C19.4597 4.55305 19.2635 4.59324 19.098 4.67361C18.9325 4.74926 18.8048 4.86037 18.715 5.00695C18.6252 5.14879 18.5802 5.31664 18.5802 5.51049H16.5377C16.5377 5.18425 16.6133 4.87456 16.7646 4.58141C16.9159 4.28827 17.1358 4.03059 17.4242 3.80837C17.7126 3.58141 18.0554 3.40411 18.4526 3.27645C18.8545 3.14879 19.3036 3.08496 19.8001 3.08496C20.3958 3.08496 20.9254 3.18425 21.3888 3.38283C21.8521 3.58141 22.2162 3.87929 22.4809 4.27645C22.7505 4.67361 22.8852 5.17007 22.8852 5.76581V9.0495C22.8852 9.4703 22.9112 9.81546 22.9632 10.085C23.0152 10.3497 23.0909 10.5814 23.1902 10.78V10.9006H21.1263C21.027 10.6925 20.9514 10.4325 20.8994 10.1204C20.8521 9.80364 20.8285 9.48685 20.8285 9.17007ZM21.098 6.2268L21.1122 7.38283H19.9703C19.7008 7.38283 19.4668 7.41357 19.2682 7.47503C19.0696 7.5365 18.9065 7.62397 18.7788 7.73744C18.6512 7.84619 18.5566 7.97385 18.4951 8.12042C18.4384 8.26699 18.41 8.42775 18.41 8.60269C18.41 8.77763 18.4502 8.93602 18.5306 9.07787C18.611 9.21498 18.7268 9.32373 18.8781 9.40411C19.0294 9.47976 19.2067 9.51759 19.41 9.51759C19.7174 9.51759 19.9845 9.45612 20.2114 9.33319C20.4384 9.21026 20.6133 9.05896 20.7363 8.87929C20.8639 8.69962 20.9301 8.52941 20.9349 8.36865L21.4739 9.2339C21.3982 9.42775 21.2942 9.6287 21.1618 9.83673C21.0341 10.0448 20.871 10.241 20.6724 10.4254C20.4739 10.6051 20.2351 10.754 19.9561 10.8722C19.6772 10.9857 19.3462 11.0424 18.9632 11.0424C18.4762 11.0424 18.0341 10.9455 17.637 10.7516C17.2445 10.553 16.9325 10.2812 16.7008 9.93602C16.4739 9.58614 16.3604 9.18898 16.3604 8.74454C16.3604 8.34264 16.436 7.98567 16.5873 7.67361C16.7386 7.36156 16.9609 7.09915 17.254 6.88638C17.5519 6.66889 17.923 6.50576 18.3675 6.39702C18.8119 6.28354 19.3273 6.2268 19.9136 6.2268H21.098Z" fill="#999999"/>
<path d="M11.1402 4.70198V13.8509H9.09769V3.2268H10.9913L11.1402 4.70198ZM15.9984 6.97858V7.12751C15.9984 7.68543 15.9322 8.20316 15.7998 8.68071C15.6722 9.15825 15.483 9.57432 15.2324 9.92893C14.9818 10.2788 14.6698 10.553 14.2963 10.7516C13.9275 10.9455 13.5019 11.0424 13.0197 11.0424C12.5516 11.0424 12.145 10.9478 11.7998 10.7587C11.4547 10.5696 11.1639 10.3048 10.9275 9.96439C10.6958 9.61924 10.509 9.21971 10.3672 8.76581C10.2253 8.31191 10.1166 7.82491 10.0409 7.30482V6.91475C10.1166 6.35683 10.2253 5.84619 10.3672 5.38283C10.509 4.91475 10.6958 4.51049 10.9275 4.17007C11.1639 3.82491 11.4523 3.55777 11.7927 3.36865C12.1379 3.17952 12.5421 3.08496 13.0055 3.08496C13.4925 3.08496 13.9204 3.17716 14.2892 3.36156C14.6627 3.54595 14.9748 3.81073 15.2253 4.15588C15.4807 4.50104 15.6722 4.91238 15.7998 5.38993C15.9322 5.86747 15.9984 6.39702 15.9984 6.97858ZM13.9488 7.12751V6.97858C13.9488 6.65234 13.9204 6.3521 13.8636 6.07787C13.8116 5.79891 13.7265 5.55541 13.6083 5.34737C13.4948 5.13933 13.3435 4.97858 13.1544 4.8651C12.97 4.7469 12.7454 4.6878 12.4807 4.6878C12.2017 4.6878 11.9629 4.73272 11.7644 4.82255C11.5705 4.91238 11.4121 5.04241 11.2892 5.21262C11.1662 5.38283 11.074 5.58614 11.0126 5.82255C10.9511 6.05896 10.9133 6.3261 10.8991 6.62397V7.60978C10.9227 7.95967 10.9889 8.27409 11.0977 8.55305C11.2064 8.82728 11.3743 9.04477 11.6012 9.20553C11.8282 9.36628 12.1261 9.44666 12.4948 9.44666C12.7644 9.44666 12.9913 9.38756 13.1757 9.26936C13.3601 9.14643 13.509 8.97858 13.6225 8.76581C13.7407 8.55305 13.8235 8.30718 13.8707 8.02822C13.9227 7.74926 13.9488 7.44903 13.9488 7.12751Z" fill="#999999"/>
<path d="M6.23139 8.19857C6.23139 8.01418 6.20302 7.84869 6.14629 7.70212C6.09428 7.55082 5.99499 7.4137 5.84841 7.29077C5.70184 7.16311 5.49617 7.03782 5.23139 6.91489C4.96662 6.79195 4.62383 6.6643 4.20302 6.53191C3.73494 6.38061 3.29049 6.21039 2.86969 6.02127C2.45361 5.83214 2.08482 5.61229 1.76331 5.36169C1.44652 5.10638 1.19593 4.81087 1.01153 4.47517C0.831866 4.13947 0.742031 3.7494 0.742031 3.30496C0.742031 2.8747 0.836594 2.48463 1.02572 2.13474C1.21484 1.78013 1.47962 1.47753 1.82005 1.22694C2.16047 0.971624 2.56236 0.775407 3.02572 0.638291C3.4938 0.501175 4.00681 0.432617 4.56473 0.432617C5.32596 0.432617 5.99026 0.569733 6.55763 0.843965C7.12501 1.1182 7.56473 1.49408 7.87678 1.97162C8.19357 2.44917 8.35196 2.99526 8.35196 3.60992H6.23849C6.23849 3.30732 6.17466 3.04255 6.047 2.8156C5.92406 2.58392 5.73494 2.40188 5.47962 2.2695C5.22903 2.13711 4.91224 2.07091 4.52927 2.07091C4.16047 2.07091 3.85314 2.12765 3.60728 2.24113C3.36142 2.34987 3.17702 2.49881 3.05409 2.68794C2.93116 2.87233 2.86969 3.08037 2.86969 3.31205C2.86969 3.48699 2.91224 3.64538 2.99735 3.78723C3.08718 3.92907 3.21957 4.06146 3.39451 4.18439C3.56945 4.30732 3.78458 4.42316 4.0399 4.53191C4.29522 4.64065 4.59073 4.74704 4.92643 4.85106C5.48908 5.02127 5.98317 5.21276 6.4087 5.42552C6.83896 5.63829 7.1983 5.87706 7.48671 6.14184C7.77513 6.40661 7.99262 6.70685 8.13919 7.04255C8.28577 7.37824 8.35905 7.75886 8.35905 8.18439C8.35905 8.63356 8.27158 9.03545 8.09664 9.39006C7.9217 9.74467 7.66875 10.0449 7.33778 10.2908C7.00681 10.5366 6.61201 10.7234 6.15338 10.8511C5.69475 10.9787 5.18175 11.0425 4.61437 11.0425C4.10373 11.0425 3.60019 10.9764 3.10373 10.844C2.60728 10.7068 2.15574 10.5012 1.74912 10.2269C1.34723 9.95271 1.02572 9.60283 0.784584 9.1773C0.543449 8.75177 0.422882 8.24822 0.422882 7.66666H2.55763C2.55763 7.98817 2.60728 8.26004 2.70657 8.48226C2.80586 8.70448 2.94534 8.88415 3.12501 9.02127C3.30941 9.15839 3.5269 9.25768 3.77749 9.31914C4.03281 9.38061 4.31177 9.41134 4.61437 9.41134C4.98317 9.41134 5.28577 9.35933 5.52217 9.25531C5.76331 9.15129 5.94061 9.00708 6.05409 8.82269C6.17229 8.63829 6.23139 8.43025 6.23139 8.19857Z" fill="#999999"/>
<defs>
<linearGradient id="paint0_linear_2501_1218" x1="38.1138" y1="2.92029" x2="39.4613" y2="10.6278" gradientUnits="userSpaceOnUse">
<stop stop-color="#DD2A7B"/>
<stop offset="0.41261" stop-color="#9747FF"/>
<stop offset="1" stop-color="#334CCA"/>
</linearGradient>
</defs>
</svg>
